<?xml version="1.0" encoding="utf-8"?>
<!-- Generator: Adobe Illustrator 24.1.2, SVG Export Plug-In . SVG Version: 6.00 Build 0)  -->
<svg version="1.1" id="Layer_1" xmlns="http://www.w3.org/2000/svg" xmlns:xlink="http://www.w3.org/1999/xlink" x="0px" y="0px"
	 viewBox="0 0 240 240" style="enable-background:new 0 0 240 240;" xml:space="preserve">
<style type="text/css">
	.st0{fill:#ED1E24;}
	.st1{fill:#434143;}
	.st2{fill:#FFFFFF;}
</style>
<rect x="0.17" y="-0.33" class="st0" width="240" height="240"/>
<g>
	<g>
		<g>
			<path class="st1" d="M54.83,84.72l11.8,25.72l-6.39,4.21L41.06,93.8l4.79-3.16l14.28,16.51l0.18-0.12L50.28,87.72L54.83,84.72z"
				/>
			<path class="st1" d="M77.51,103.28c-0.52-0.32-1.15-1.01-1.43-1.44l-0.09,0.06c-0.08,1.42-0.56,3.23-2.37,4.43
				c-2.64,1.74-5.19,0.82-6.71-1.48l-0.41-0.61c-1.38-2.09-0.93-4.63,0.98-7.61l2.04-3.19l-0.85-1.29c-0.63-0.95-1.38-1.16-2.3-0.55
				c-0.95,0.63-1.09,1.42-0.26,2.68c0.2,0.31,0.49,0.61,0.71,0.81l-3.35,2.61c-0.38-0.37-0.93-1.02-1.26-1.51
				c-1.9-2.89-1.45-5.88,2.18-8.27c3.99-2.63,6.95-1.76,9.3,1.8l5.85,8.88c0.57,0.86,1.29,1.75,1.82,2.15L77.51,103.28z
				 M71.58,96.56l-0.82,1.43c-0.54,0.93-0.61,1.81-0.13,2.55l0.53,0.8c0.47,0.71,1.21,0.83,1.89,0.39c0.8-0.53,0.95-1.51,0.38-2.37
				L71.58,96.56z"/>
			<path class="st1" d="M86.91,97.08l-4.61,3.04L66.91,76.76l4.61-3.04L86.91,97.08z"/>
			<path class="st1" d="M92.85,93.17l-4.61,3.04L72.84,72.85l4.61-3.04L92.85,93.17z"/>
			<path class="st1" d="M100.08,77.6l-6.42,4.23l1.95,2.95c0.73,1.11,1.53,1.19,2.33,0.66c0.83-0.55,1.05-1.35,0.22-2.61
				c-0.2-0.31-0.54-0.75-0.84-1.08l3.44-2.53c0.32,0.36,0.81,0.96,1.3,1.7c1.82,2.77,1.57,5.66-1.99,8.01
				c-3.5,2.31-6.97,2.13-9.32-1.44l-4.11-6.24c-2.49-3.78-1.54-7.01,2.09-9.4c3.38-2.23,6.61-1.67,9.29,2.39
				C98.72,75.33,99.57,76.75,100.08,77.6z M91,75.12c-0.8,0.53-0.93,1.27-0.26,2.28l1.07,1.63l2.49-1.64
				c-0.18-0.28-0.6-0.97-0.9-1.43C92.59,74.73,91.86,74.56,91,75.12z"/>
			<path class="st1" d="M106.64,60.67l7.54,19.54c1.6,4.1,0.93,7.1-1.99,9.02c-1.01,0.67-1.87,1.1-2.52,1.4l-2.41-3.66
				c0.49-0.19,0.95-0.36,1.41-0.67c0.95-0.63,1.01-1.28,0.76-2.13l-0.37-1.17L94.2,68.87l5.13-3.38l8.6,10.38l0.15-0.1l-5.9-12.16
				L106.64,60.67z"/>
		</g>
	</g>
	<g>
		<g>
			<path class="st1" d="M93.05,122.69c2.44,3.68,1.37,7.79-2.16,10.13c-3.74,2.48-7.16,1.79-9.64-1.95
				c-0.85-1.29-1.37-2.27-1.66-2.96l3.81-2.18c0.21,0.52,0.66,1.33,1.33,2.34c1.28,1.93,2.38,2,3.43,1.3
				c1.01-0.67,1.06-1.94,0.34-3.01l-0.22-0.34c-1.12-1.69-2.69-2.32-6.71-3.06c-4-0.7-6.65-1.77-8.38-4.38l-0.14-0.21
				c-1.93-2.91-1.69-7.27,2.24-9.88c3.99-2.64,7.59-1.28,9.7,1.91c0.63,0.95,1.22,1.97,1.67,2.91l-3.75,2.13
				c-0.25-0.58-0.73-1.5-1.28-2.33c-1.32-1.99-2.42-1.93-3.5-1.21c-1.07,0.71-1.25,1.71-0.5,2.85l0.1,0.15
				c0.86,1.29,2.26,1.94,5.54,2.42c4.05,0.58,7.52,1.95,9.51,4.96L93.05,122.69z"/>
			<path class="st1" d="M106.63,121.85c-0.63,0.51-1.23,0.95-2.67,1.9c-3.19,2.12-5.7,1.53-7.59-1.33l-5.78-8.71l-1.72,1.14
				l-1.97-2.97l0.64-0.43c2.02-1.34,1.65-3.97,0.4-6.45l2.39-1.59l2.66,4.02l2.82-1.87l2.16,3.25l-2.82,1.87l5.63,8.5
				c0.61,0.92,1.28,1.14,2.42,0.38c0.58-0.39,0.94-0.71,1.24-1L106.63,121.85z"/>
			<path class="st1" d="M107.53,103.63c-0.41,0.18-0.74,0.36-1.2,0.66c-1.99,1.32-1.89,3.02-0.79,4.67l6.26,9.45l-4.6,3.05
				l-9.17-13.83c-0.73-1.1-1.15-1.67-1.84-2.31l4.02-2.66c0.63,0.55,1.6,1.68,2.07,2.38l0.15-0.1c-0.52-2.79-0.04-4.39,2.11-5.81
				L107.53,103.63z"/>
			<path class="st1" d="M122.05,100.81l-6.41,4.25l1.95,2.94c0.73,1.1,1.54,1.19,2.34,0.66c0.83-0.55,1.04-1.35,0.21-2.61
				c-0.2-0.31-0.54-0.75-0.84-1.07l3.44-2.54c0.33,0.36,0.81,0.96,1.3,1.7c1.83,2.76,1.59,5.66-1.97,8.02
				c-3.5,2.32-6.97,2.15-9.33-1.41l-4.13-6.23c-2.5-3.77-1.55-7.01,2.07-9.41c3.37-2.24,6.61-1.69,9.29,2.36
				C120.68,98.54,121.53,99.96,122.05,100.81z M112.96,98.36c-0.8,0.53-0.92,1.27-0.25,2.29l1.08,1.63l2.48-1.65
				c-0.18-0.28-0.6-0.97-0.9-1.43C114.55,97.96,113.82,97.79,112.96,98.36z"/>
			<path class="st1" d="M135.59,102.65c-0.52-0.32-1.15-1-1.44-1.43l-0.09,0.06c-0.07,1.42-0.55,3.23-2.36,4.44
				c-2.64,1.75-5.19,0.84-6.71-1.47l-0.41-0.61c-1.38-2.09-0.95-4.63,0.96-7.61l2.03-3.2l-0.85-1.29c-0.63-0.95-1.39-1.16-2.31-0.55
				c-0.95,0.63-1.09,1.43-0.25,2.68c0.2,0.31,0.49,0.6,0.71,0.81l-3.34,2.62c-0.38-0.37-0.94-1.01-1.26-1.5
				c-1.91-2.88-1.47-5.87,2.15-8.27c3.99-2.64,6.95-1.78,9.31,1.78l5.88,8.87c0.57,0.86,1.29,1.75,1.82,2.15L135.59,102.65z
				 M129.64,95.95l-0.82,1.43c-0.53,0.93-0.61,1.82-0.12,2.55l0.53,0.8c0.47,0.71,1.21,0.83,1.89,0.38c0.8-0.53,0.94-1.51,0.37-2.37
				L129.64,95.95z"/>
			<path class="st1" d="M159.15,87.02l-4.57,3.03l-7.93-11.96c-0.59-0.89-1.27-1.05-1.98-0.59c-0.77,0.51-0.95,1.56-0.42,2.36
				l7.85,11.84l-4.6,3.05l-7.93-11.96c-0.55-0.83-1.18-1.12-1.98-0.59c-0.89,0.59-0.91,1.62-0.42,2.36l7.85,11.84l-4.6,3.05
				l-9.38-14.14c-0.69-1.04-1.21-1.63-1.67-1.98l4.26-2.83c0.51,0.37,0.93,0.8,1.29,1.35l0.09-0.06c0.16-1.16,0.46-3.17,2.39-4.46
				c1.56-1.04,3.16-1.03,4.45-0.21c0.19-1.58,0.73-3.22,2.51-4.4c2.7-1.79,4.86-0.66,6.77,2.22L159.15,87.02z"/>
		</g>
	</g>
	<g>
		<path class="st2" d="M88.51,159.03c2.9,4.39,1.67,7.86-1.89,10.21c-3.41,2.25-6.56,1.56-9.3-2.59c-0.77-1.17-1.17-1.96-1.4-2.65
			l3.85-2.19c0.21,0.52,0.6,1.24,0.96,1.79c1.46,2.21,2.38,2.79,3.42,2.1c0.83-0.55,0.89-1.25,0.3-2.14l-12.41-18.76l4.91-3.25
			L88.51,159.03z"/>
		<path class="st2" d="M101.66,158.76c-0.4-0.27-0.95-0.83-1.23-1.26l-0.15,0.1c-0.21,1.29-0.68,3.05-2.42,4.21
			c-2.33,1.54-4.83,1.03-6.76-1.88l-8.1-12.25l4.6-3.04l7.88,11.91c0.61,0.92,1.37,1.08,2.17,0.55c0.83-0.55,0.86-1.37,0.33-2.16
			l-7.9-11.94l4.6-3.04l9.26,14c0.65,0.98,1.14,1.59,1.8,2.12L101.66,158.76z"/>
		<path class="st2" d="M111.94,152.36c-3.81,2.52-6.48,1.42-8.16-1.13c-0.33-0.49-0.65-1.12-0.85-1.69l3.65-2.15
			c0.12,0.32,0.4,0.88,0.59,1.16c0.75,1.14,1.53,1.24,2.51,0.59c0.74-0.49,1.01-1.28,0.62-1.87c-0.47-0.71-1.11-0.81-2.97-0.95
			l-2.94-0.17c-2.13-0.09-4.17-0.24-5.92-2.88c-1.7-2.58-0.72-5.96,2.38-8.01c3.44-2.27,6.17-2.14,8.35,1.14
			c0.3,0.46,0.66,1.07,0.89,1.62l-3.61,2.08c-0.09-0.34-0.23-0.68-0.6-1.24c-0.67-1.01-1.57-1.17-2.49-0.56
			c-0.83,0.55-0.94,1.37-0.58,1.93c0.41,0.61,0.94,0.75,2.33,0.8l3.45,0.14c2.37,0.11,4.48,0.57,5.88,2.69
			C116.47,146.85,115.63,149.92,111.94,152.36z"/>
		<path class="st2" d="M126.78,142.15c-0.64,0.51-1.23,0.94-2.67,1.9c-3.19,2.11-5.7,1.52-7.59-1.33l-5.77-8.72l-1.72,1.14
			l-1.97-2.98l0.64-0.43c2.03-1.34,1.66-3.97,0.41-6.45l2.39-1.58l2.66,4.02l2.82-1.87l2.15,3.25l-2.82,1.87l5.62,8.5
			c0.61,0.92,1.28,1.14,2.42,0.39c0.58-0.39,0.94-0.71,1.24-1L126.78,142.15z"/>
		<path class="st2" d="M118.06,120.19l-0.34,0.22c-1.18,0.78-2.77,0.46-3.54-0.72v0c-0.78-1.18-0.46-2.76,0.72-3.54l0.34-0.22
			c1.18-0.78,2.77-0.46,3.54,0.72l0,0C119.56,117.82,119.24,119.41,118.06,120.19z M132.8,137.84l-4.6,3.04l-10.78-16.3l4.6-3.04
			L132.8,137.84z"/>
		<path class="st2" d="M139.89,133.68c-3.93,2.6-7.07,1.72-9.34-1.72l-4.1-6.2c-2.46-3.71-1.3-6.91,2.14-9.18
			c3.19-2.11,6.3-1.74,8.48,1.54c0.55,0.83,0.79,1.33,1.06,1.94l-3.7,2.14c-0.14-0.35-0.36-0.82-0.73-1.37
			c-0.89-1.35-1.8-1.46-2.57-0.95c-0.86,0.57-1.02,1.33-0.18,2.59l4.47,6.75c0.81,1.23,1.58,1.38,2.4,0.84
			c0.95-0.63,0.94-1.59,0.08-2.88c-0.26-0.4-0.69-0.91-0.9-1.17l3.41-2.52c0.17,0.19,0.8,0.88,1.37,1.74
			C144.19,128.9,142.72,131.81,139.89,133.68z"/>
		<path class="st2" d="M151.74,114.5l-6.41,4.24l1.95,2.95c0.73,1.11,1.54,1.19,2.34,0.66c0.83-0.55,1.05-1.35,0.21-2.61
			c-0.2-0.31-0.54-0.75-0.84-1.07l3.44-2.54c0.32,0.36,0.81,0.96,1.3,1.7c1.83,2.76,1.58,5.66-1.98,8.01
			c-3.5,2.32-6.97,2.14-9.33-1.42l-4.12-6.23c-2.5-3.78-1.55-7.01,2.08-9.4c3.38-2.23,6.61-1.68,9.29,2.37
			C150.37,112.23,151.23,113.65,151.74,114.5z M142.66,112.04c-0.8,0.53-0.92,1.27-0.25,2.29l1.08,1.63l2.49-1.65
			c-0.18-0.28-0.6-0.97-0.9-1.43C144.25,111.65,143.52,111.47,142.66,112.04z"/>
	</g>
	<g>
		<path class="st2" d="M127.67,166.41l-1.64,1.12l5.46,8.04l-4.84,3.29l-15.71-23.14l6.03-4.09c4.11-2.79,7.38-2.3,11.1,3.18
			C131.96,160.56,131.07,164.1,127.67,166.41z M119.15,155.64l-0.82,0.56l5.17,7.61l0.85-0.58c1.04-0.7,1.02-2.16-1.07-5.24
			C121.4,155.23,120.28,154.88,119.15,155.64z"/>
		<path class="st2" d="M139.73,152.21c-0.41,0.19-0.73,0.36-1.19,0.67c-1.98,1.34-1.85,3.04-0.74,4.68l6.37,9.38l-4.57,3.1
			l-9.32-13.73c-0.74-1.1-1.17-1.65-1.87-2.29l3.99-2.71c0.64,0.55,1.62,1.66,2.09,2.36l0.15-0.1c-0.55-2.78-0.09-4.39,2.04-5.84
			L139.73,152.21z"/>
		<path class="st2" d="M156.59,151.35c2.36,3.47,1.24,6.81-2.26,9.19c-3.11,2.11-6.9,2.28-9.34-1.31l-4.26-6.27
			c-2.4-3.53-1.15-7.14,2.1-9.35c3.17-2.15,6.89-2.36,9.5,1.47L156.59,151.35z M147.52,147.81c-0.81-1.19-1.52-1.32-2.34-0.77
			c-0.88,0.6-0.84,1.32-0.07,2.45l4.69,6.91c0.66,0.97,1.38,1.24,2.2,0.68c0.79-0.54,0.9-1.37,0.24-2.34L147.52,147.81z"/>
		<path class="st2" d="M151.06,134.69l-0.3,0.21c-1.18,0.8-2.78,0.49-3.58-0.68l0,0c-0.8-1.18-0.49-2.78,0.68-3.58l0.3-0.21
			c1.18-0.8,2.78-0.49,3.58,0.68l0,0C152.54,132.28,152.24,133.89,151.06,134.69z M166.61,153c2.19,3.23,2.1,6.18-0.82,8.16
			c-0.79,0.54-1.77,1.07-2.32,1.31l-2.65-3.9c0.31-0.07,0.65-0.22,1.14-0.55c0.64-0.43,0.7-1.01,0.03-1.98l-11.54-16.99l4.57-3.1
			L166.61,153z"/>
		<path class="st2" d="M173.03,136.45l-6.36,4.32l1.99,2.92c0.74,1.1,1.55,1.17,2.34,0.63c0.82-0.56,1.03-1.37,0.18-2.61
			c-0.21-0.3-0.55-0.74-0.86-1.06l3.41-2.58c0.33,0.35,0.82,0.95,1.32,1.68c1.86,2.74,1.65,5.64-1.88,8.04
			c-3.47,2.36-6.94,2.22-9.34-1.31l-4.2-6.18c-2.54-3.75-1.63-6.99,1.96-9.43c3.35-2.27,6.59-1.76,9.32,2.26
			C171.64,134.19,172.5,135.6,173.03,136.45z M163.92,134.09c-0.79,0.54-0.91,1.28-0.23,2.29l1.09,1.61l2.47-1.67
			c-0.19-0.27-0.61-0.96-0.92-1.42C165.51,133.68,164.77,133.52,163.92,134.09z"/>
		<path class="st2" d="M184.95,139.78c-3.9,2.65-7.05,1.8-9.36-1.6l-4.18-6.15c-2.5-3.68-1.39-6.89,2.02-9.2
			c3.17-2.15,6.28-1.82,8.5,1.44c0.56,0.82,0.81,1.32,1.09,1.93l-3.68,2.18c-0.14-0.35-0.37-0.81-0.75-1.36
			c-0.91-1.34-1.82-1.43-2.58-0.92c-0.85,0.58-1,1.35-0.15,2.59l4.55,6.7c0.83,1.22,1.59,1.37,2.42,0.81
			c0.94-0.64,0.92-1.6,0.05-2.88c-0.27-0.39-0.7-0.9-0.92-1.16l3.38-2.56c0.18,0.19,0.81,0.87,1.39,1.72
			C189.19,134.95,187.76,137.88,184.95,139.78z"/>
		<path class="st2" d="M199.17,129.6c-0.63,0.51-1.22,0.96-2.65,1.93c-3.17,2.15-5.68,1.59-7.6-1.24l-5.87-8.65l-1.71,1.16l-2-2.95
			l0.64-0.43c2.01-1.36,1.61-3.99,0.33-6.45l2.38-1.61l2.71,3.99l2.8-1.9l2.19,3.23l-2.8,1.9l5.73,8.43
			c0.62,0.91,1.3,1.12,2.42,0.36c0.58-0.39,0.93-0.72,1.23-1.01L199.17,129.6z"/>
	</g>
</g>
</svg>
